<svg xmlns="http://www.w3.org/2000/svg" xmlns:xlink="http://www.w3.org/1999/xlink" width="50" zoomAndPan="magnify" viewBox="0 0 37.5 37.499999" height="50" preserveAspectRatio="xMidYMid meet" version="1.0"><path fill="#000000" d="M 14.996094 0.0664062 C 6.679688 0.15625 0.0078125 6.976562 0.0976562 15.296875 C 0.191406 23.613281 7.007812 30.285156 15.328125 30.195312 C 18.402344 30.160156 21.390625 29.1875 23.894531 27.40625 L 32.496094 36.007812 C 33.484375 36.980469 35.070312 36.96875 36.042969 35.984375 C 37.007812 35.007812 37.007812 33.4375 36.042969 32.460938 L 27.441406 23.859375 C 32.261719 17.082031 30.671875 7.675781 23.894531 2.851562 C 21.296875 1.007812 18.183594 0.03125 14.996094 0.0664062 Z M 14.816406 2.671875 C 21.6875 2.480469 27.410156 7.894531 27.601562 14.765625 C 27.605469 14.886719 27.609375 15.007812 27.609375 15.128906 C 27.613281 22 22.042969 27.574219 15.167969 27.578125 C 8.296875 27.582031 2.722656 22.011719 2.71875 15.140625 C 2.71875 15.136719 2.71875 15.132812 2.71875 15.128906 C 2.710938 8.386719 8.074219 2.863281 14.816406 2.671875 Z M 14.816406 2.671875 " fill-opacity="1" fill-rule="nonzero"/><path fill="#000000" d="M 11.804688 5.898438 C 12.484375 5.65625 13.234375 6.007812 13.480469 6.691406 C 13.722656 7.367188 13.375 8.113281 12.699219 8.363281 C 9.855469 9.398438 7.960938 12.101562 7.960938 15.128906 C 7.960938 15.855469 7.375 16.441406 6.652344 16.441406 C 5.925781 16.441406 5.339844 15.855469 5.339844 15.128906 C 5.339844 11 7.921875 7.3125 11.804688 5.898438 Z M 11.804688 5.898438 " fill-opacity="1" fill-rule="nonzero"/></svg>